<svg width="22" height="22" viewBox="0 0 22 22" fill="none" xmlns="http://www.w3.org/2000/svg">
<path d="M19.4791 16.9308L17.9666 17.2883C17.6275 17.3708 17.3616 17.6274 17.2883 17.9666L16.9675 19.3141C16.7933 20.0474 15.8583 20.2766 15.3725 19.6991L12.6316 16.5458C12.4116 16.2891 12.5308 15.8858 12.8608 15.8033C14.4833 15.4091 15.9408 14.5016 17.0133 13.2091C17.1875 12.9983 17.4991 12.9708 17.6916 13.1633L19.7266 15.1983C20.4233 15.8949 20.1758 16.7658 19.4791 16.9308Z" fill="#FFC403"/>
<path d="M2.47503 16.9308L3.98753 17.2883C4.32669 17.3708 4.59253 17.6274 4.66586 17.9666L4.98669 19.3141C5.16086 20.0474 6.09586 20.2766 6.58169 19.6991L9.32253 16.5458C9.54253 16.2891 9.42336 15.8858 9.09336 15.8033C7.47086 15.4091 6.01336 14.5016 4.94086 13.2091C4.76669 12.9983 4.45503 12.9708 4.26253 13.1633L2.22753 15.1983C1.53086 15.8949 1.77836 16.7658 2.47503 16.9308Z" fill="#FFC403"/>
<path d="M11 1.8335C7.45254 1.8335 4.58337 4.70266 4.58337 8.25016C4.58337 9.57933 4.97754 10.7985 5.65587 11.816C6.64587 13.2827 8.21337 14.3185 10.0375 14.5843C10.3492 14.6393 10.67 14.6668 11 14.6668C11.33 14.6668 11.6509 14.6393 11.9625 14.5843C13.7867 14.3185 15.3542 13.2827 16.3442 11.816C17.0225 10.7985 17.4167 9.57933 17.4167 8.25016C17.4167 4.70266 14.5475 1.8335 11 1.8335ZM13.805 8.0485L13.0442 8.80933C12.9159 8.93766 12.8425 9.18516 12.8884 9.3685L13.1084 10.3127C13.2825 11.0552 12.8884 11.3485 12.2284 10.9543L11.3117 10.4135C11.1467 10.3127 10.8717 10.3127 10.7067 10.4135L9.79004 10.9543C9.13004 11.3393 8.73587 11.0552 8.91004 10.3127L9.13004 9.3685C9.16671 9.19433 9.10254 8.93766 8.97421 8.80933L8.19504 8.0485C7.74587 7.59933 7.89254 7.15016 8.51587 7.04933L9.49671 6.88433C9.66171 6.85683 9.85421 6.71016 9.92754 6.5635L10.4684 5.48183C10.7617 4.89516 11.2384 4.89516 11.5317 5.48183L12.0725 6.5635C12.1459 6.71016 12.3384 6.85683 12.5125 6.88433L13.4934 7.04933C14.1075 7.15016 14.2542 7.59933 13.805 8.0485Z" fill="#FFC403"/>
</svg>
