<svg width="20" height="18" viewBox="0 0 20 18" fill="none" xmlns="http://www.w3.org/2000/svg">
<path d="M19.913 8.68413C19.913 7.42026 18.3349 6.22249 15.9155 5.47972C16.4738 3.00642 16.2257 1.03867 15.1323 0.408676C14.8802 0.2609 14.5856 0.190901 14.2637 0.190901V1.05811C14.4421 1.05811 14.5856 1.09311 14.7058 1.15922C15.2331 1.46255 15.4618 2.61754 15.2835 4.10307C15.2408 4.46863 15.171 4.85362 15.0857 5.24639C14.3258 5.05973 13.496 4.91584 12.6236 4.82251C12.1002 4.10307 11.5574 3.44975 11.0107 2.87809C12.2747 1.69977 13.4611 1.05422 14.2676 1.05422V0.187012C13.2014 0.187012 11.8055 0.949225 10.3942 2.27143C8.98284 0.957002 7.587 0.202567 6.52074 0.202567V1.06978C7.32334 1.06978 8.51368 1.71144 9.77769 2.88198C9.23486 3.45364 8.69204 4.10307 8.17635 4.82251C7.30008 4.91584 6.47033 5.05973 5.71038 5.25028C5.6212 4.8614 5.55528 4.48418 5.50876 4.12252C5.32652 2.63698 5.55141 1.482 6.07485 1.17478C6.19117 1.10478 6.34238 1.07367 6.52074 1.07367V0.206456C6.19504 0.206456 5.90037 0.276455 5.64446 0.424231C4.55494 1.05422 4.31067 3.01809 4.87288 5.48361C2.46118 6.23027 0.890869 7.42414 0.890869 8.68413C0.890869 9.948 2.46894 11.1458 4.88839 11.8885C4.33005 14.3618 4.5782 16.3296 5.6716 16.9596C5.92363 17.1074 6.21831 17.1774 6.544 17.1774C7.61027 17.1774 9.0061 16.4151 10.4174 15.0929C11.8288 16.4074 13.2246 17.1618 14.2909 17.1618C14.6166 17.1618 14.9113 17.0918 15.1672 16.944C16.2567 16.314 16.501 14.3502 15.9387 11.8846C18.3427 11.1419 19.913 9.94411 19.913 8.68413ZM14.8647 6.09027C14.7213 6.59193 14.5429 7.10915 14.3413 7.62636C14.1823 7.31526 14.0156 7.00415 13.8334 6.69304C13.655 6.38194 13.465 6.07861 13.275 5.78305C13.8256 5.86472 14.3568 5.96583 14.8647 6.09027ZM13.0889 10.2319C12.7865 10.7569 12.4763 11.2547 12.1545 11.7174C11.5768 11.768 10.9913 11.7952 10.4019 11.7952C9.81646 11.7952 9.23098 11.768 8.65714 11.7213C8.33532 11.2585 8.02126 10.7647 7.71883 10.2436C7.42415 9.73412 7.15662 9.2169 6.91235 8.6958C7.15274 8.17469 7.42415 7.65359 7.71495 7.14415C8.01738 6.61915 8.32757 6.12138 8.64939 5.65861C9.22711 5.60806 9.81258 5.58083 10.4019 5.58083C10.9874 5.58083 11.5729 5.60806 12.1467 5.65472C12.4685 6.11749 12.7826 6.61138 13.085 7.13248C13.3797 7.64192 13.6473 8.15914 13.8915 8.68024C13.6473 9.20134 13.3797 9.72245 13.0889 10.2319ZM14.3413 9.72634C14.5507 10.2474 14.729 10.7685 14.8764 11.2741C14.3684 11.3985 13.8334 11.5035 13.2789 11.5852C13.4689 11.2858 13.6589 10.9785 13.8372 10.6635C14.0156 10.3524 14.1823 10.0374 14.3413 9.72634ZM10.4097 13.8757C10.0491 13.5024 9.68851 13.0863 9.33179 12.6313C9.68075 12.6469 10.0375 12.6585 10.3981 12.6585C10.7625 12.6585 11.1231 12.6507 11.476 12.6313C11.127 13.0863 10.7664 13.5024 10.4097 13.8757ZM7.52496 11.5852C6.97438 11.5035 6.44319 11.4024 5.93526 11.278C6.07872 10.7763 6.25708 10.2591 6.4587 9.74189C6.61767 10.053 6.7844 10.3641 6.96663 10.6752C7.14886 10.9863 7.33497 11.2897 7.52496 11.5852ZM10.3903 3.49253C10.7509 3.86586 11.1115 4.28196 11.4682 4.73696C11.1192 4.7214 10.7625 4.70973 10.4019 4.70973C10.0375 4.70973 9.67688 4.71751 9.32404 4.73696C9.673 4.28196 10.0336 3.86586 10.3903 3.49253ZM7.52109 5.78305C7.3311 6.08249 7.14111 6.38971 6.96275 6.70471C6.7844 7.01582 6.61767 7.32692 6.4587 7.63803C6.24933 7.11693 6.07097 6.59582 5.92363 6.09027C6.43156 5.96972 6.96663 5.86472 7.52109 5.78305ZM4.01211 10.6519C2.63954 10.0647 1.75163 9.29468 1.75163 8.68413C1.75163 8.07358 2.63954 7.2997 4.01211 6.71638C4.34556 6.57249 4.71003 6.44416 5.08613 6.3236C5.30714 7.08582 5.59794 7.87914 5.95853 8.69191C5.60181 9.50079 5.31489 10.2902 5.09776 11.0485C4.71391 10.928 4.34944 10.7958 4.01211 10.6519ZM6.09811 16.209C5.57079 15.9057 5.34203 14.7507 5.52039 13.2652C5.56304 12.8996 5.63283 12.5146 5.71813 12.1219C6.47809 12.3085 7.30783 12.4524 8.18023 12.5457C8.70367 13.2652 9.24649 13.9185 9.7932 14.4902C8.52919 15.6685 7.34273 16.314 6.53625 16.314C6.36177 16.3101 6.21443 16.2751 6.09811 16.209ZM15.2951 13.2457C15.4773 14.7313 15.2525 15.8863 14.729 16.1935C14.6127 16.2635 14.4615 16.2946 14.2831 16.2946C13.4805 16.2946 12.2902 15.6529 11.0262 14.4824C11.569 13.9107 12.1118 13.2613 12.6275 12.5419C13.5038 12.4485 14.3335 12.3046 15.0935 12.1141C15.1827 12.5069 15.2525 12.8841 15.2951 13.2457ZM16.7879 10.6519C16.4544 10.7958 16.09 10.9241 15.7139 11.0447C15.4929 10.2824 15.2021 9.48912 14.8415 8.67635C15.1982 7.86747 15.4851 7.07804 15.7022 6.31971C16.0861 6.44027 16.4506 6.57249 16.7918 6.71638C18.1643 7.30359 19.0522 8.07358 19.0522 8.68413C19.0484 9.29468 18.1605 10.0686 16.7879 10.6519Z" fill="#61DAFB"/>
<path d="M10.398 10.4621C11.3766 10.4621 12.17 9.66644 12.17 8.68492C12.17 7.70339 11.3766 6.90771 10.398 6.90771C9.41942 6.90771 8.6261 7.70339 8.6261 8.68492C8.6261 9.66644 9.41942 10.4621 10.398 10.4621Z" fill="#61DAFB"/>
</svg>
