<svg width="35" height="12" viewBox="0 0 35 12" fill="none" xmlns="http://www.w3.org/2000/svg">
<g clip-path="url(#clip0_510_9115)">
<path d="M30.4646 10.4397V12.0001H33.3555C33.9478 12.0001 34.9644 11.5777 34.9998 10.3966V9.79317C34.9998 8.78455 34.1511 8.18972 33.3555 8.18972H31.9145V7.46558H34.7699V5.89662H32.0294C31.3221 5.89662 30.3762 6.46558 30.3762 7.52593V8.06903C30.3762 9.12938 31.3133 9.67248 32.0294 9.67248C34.0185 9.6811 31.552 9.67248 33.3908 9.67248V10.4311M14.976 10.0604C14.976 10.0604 16.5231 9.9311 16.5231 7.98283C16.5231 6.03455 14.6489 5.85352 14.6489 5.85352H11.2719V12.0001H12.9692V10.5173L14.4368 12.0001H16.9475L14.976 10.0604ZM14.3218 8.80179H12.9692V7.39662H14.3307C14.3307 7.39662 14.7108 7.53455 14.7108 8.09489C14.7108 8.65524 14.3218 8.80179 14.3218 8.80179ZM20.7135 5.89662H18.9896C17.7608 5.89662 17.3453 6.98283 17.3453 7.50007V12.0001H19.0692V10.9225H20.687V12.0001H22.3579V7.50007C22.3579 6.18972 21.1379 5.89662 20.7135 5.89662ZM20.687 9.1811H19.0603V7.68972C19.0603 7.68972 19.0603 7.35352 19.5996 7.35352H20.1919C20.6693 7.35352 20.6782 7.68972 20.6782 7.68972V9.1811H20.687ZM23.1447 5.89662H24.9393V12.0001H23.1447V5.89662ZM27.4588 10.4225V5.89662H25.6731V12.0001H29.8723V10.4225H27.4588Z" fill="#CC0000"/>
<path d="M0.619019 12H7.60303C7.60303 12 6.26811 6.06037 10.6884 3.6552C11.652 3.1983 14.7196 1.49141 19.7411 5.1121C19.9002 4.98279 20.0505 4.87934 20.0505 4.87934C20.0505 4.87934 15.4534 0.405201 10.3347 0.905201C7.76216 1.12934 4.59725 3.41382 2.74074 6.43106C0.884234 9.4483 0.619019 12 0.619019 12Z" fill="#CC0000"/>
<path d="M0.619019 12H7.60303C7.60303 12 6.26811 6.06037 10.6884 3.6552C11.652 3.1983 14.7196 1.49141 19.7411 5.1121C19.9002 4.98279 20.0505 4.87934 20.0505 4.87934C20.0505 4.87934 15.4534 0.405201 10.3347 0.905201C7.76216 1.12934 4.59725 3.41382 2.74074 6.43106C0.884234 9.4483 0.619019 12 0.619019 12Z" fill="#CC0000"/>
<path d="M0.619019 12.0002H7.60303C7.60303 12.0002 6.26811 6.06051 10.6884 3.65534C11.652 3.19844 14.7196 1.49155 19.7411 5.11224C19.9002 4.98293 20.0505 4.87948 20.0505 4.87948C20.0505 4.87948 15.4534 0.405341 10.3347 0.905341C7.75332 1.12948 4.58841 3.41396 2.7319 6.4312C0.875393 9.44844 0.619019 12.0002 0.619019 12.0002ZM15.1705 1.3881L15.2059 0.810513C15.1263 0.76741 14.9053 0.663961 14.3483 0.508789L14.313 1.07775C14.6047 1.17258 14.8876 1.27603 15.1705 1.3881Z" fill="#CC0000"/>
<path d="M14.3308 3.21552L14.2955 3.75862C14.5872 3.76724 14.879 3.80172 15.1707 3.86207L15.2061 3.32759C14.9055 3.26724 14.6137 3.23276 14.3308 3.21552ZM11.0599 0.525862H11.1483L10.9714 0C10.6974 0 10.4145 0.0172414 10.1228 0.0517241L10.2907 0.560345C10.5471 0.534483 10.8035 0.525862 11.0599 0.525862ZM11.4842 3.69828L11.6875 4.2931C11.9439 4.17241 12.2003 4.06897 12.4567 3.99138L12.2622 3.42241C11.9616 3.50862 11.7052 3.60345 11.4842 3.69828ZM7.4706 1.43103L7.07278 0.836207C6.85177 0.948276 6.62191 1.06897 6.38322 1.2069L6.78988 1.81034C7.01974 1.67241 7.24075 1.5431 7.4706 1.43103ZM9.28291 5.31034L9.70726 5.93103C9.85754 5.71552 10.0344 5.51724 10.2288 5.31897L9.83102 4.73276C9.62769 4.91379 9.44204 5.11207 9.28291 5.31034ZM8.00104 8.08621L8.71712 8.63793C8.75248 8.30172 8.81436 7.96552 8.90277 7.62931L8.26625 7.13793C8.15132 7.4569 8.07176 7.77586 8.00104 8.08621ZM4.12889 3.99138L3.50121 3.4569C3.27136 3.67241 3.05035 3.88793 2.84701 4.10345L3.52773 4.67241C3.71338 4.43965 3.91672 4.2069 4.12889 3.99138ZM1.45905 7.84483L0.442392 7.48276C0.274422 7.85345 0.0887714 8.28448 0.000366211 8.51724L1.01703 8.87931C1.13195 8.58621 1.3176 8.16379 1.45905 7.84483ZM7.86843 10.2759C7.88611 10.7328 7.93031 11.1034 7.97451 11.3621L9.03538 11.7328C8.95581 11.3966 8.87625 11.0172 8.8232 10.6121L7.86843 10.2759Z" fill="#CC0000"/>
</g>
<defs>
<clipPath id="clip0_510_9115">
<rect width="35" height="12" fill="white"/>
</clipPath>
</defs>
</svg>
